<?xml version="1.0" encoding="utf-8"?>
<!-- Generator: Adobe Illustrator 18.0.0, SVG Export Plug-In . SVG Version: 6.00 Build 0)  -->
<!DOCTYPE svg PUBLIC "-//W3C//DTD SVG 1.1//EN" "http://www.w3.org/Graphics/SVG/1.1/DTD/svg11.dtd">
<svg version="1.1" id="图层_1" xmlns="http://www.w3.org/2000/svg" xmlns:xlink="http://www.w3.org/1999/xlink" x="0px" y="0px"
	 viewBox="0 0 64 64" enable-background="new 0 0 64 64" xml:space="preserve">
<g>
	
		<path fill-rule="evenodd" clip-rule="evenodd" fill="none" stroke="#FFFFFF" stroke-width="2" stroke-linecap="round" stroke-linejoin="round" stroke-miterlimit="10" d="
		M49.8,4.2c2.5,2.5,2.5,6.6,0,9.1c2.5-2.5,6.6-2.5,9.1,0c2.5,2.5,2.5,6.6,0,9.1c-2.5,2.5-6.6,2.5-9.1,0c-0.4-0.4-0.7-0.8-1-1.3l-4,4
		c4.5,9,0.6,23.1-6.6,30.3c-8.3,8.3-18.5,5-26.9-3.3C3,43.9-0.3,33.7,8,25.4c7.1-7.1,20.7-11,29.8-6.9l4.2-4.2
		c-0.5-0.3-0.9-0.6-1.3-1c-2.5-2.5-2.5-6.6,0-9.1C43.2,1.7,47.3,1.7,49.8,4.2L49.8,4.2z"/>
	
		<path fill-rule="evenodd" clip-rule="evenodd" fill="none" stroke="#FFFFFF" stroke-width="2" stroke-linecap="round" stroke-linejoin="round" stroke-miterlimit="10" d="
		M32.6,59.2c3.4-3.4-0.2-12.5-8-20.3c-7.8-7.8-16.9-11.4-20.3-8"/>
	
		<path fill-rule="evenodd" clip-rule="evenodd" fill="none" stroke="#FFFFFF" stroke-width="2" stroke-linecap="round" stroke-linejoin="round" stroke-miterlimit="10" d="
		M19.9,43.7c-2.5-2.5-5.5-3.7-6.9-2.3c-1.4,1.4-0.3,4.4,2.3,6.9c2.5,2.5,5.5,3.7,6.9,2.3C23.6,49.1,22.4,46.2,19.9,43.7L19.9,43.7z"
		/>
</g>
</svg>
