<?xml version="1.0" encoding="utf-8"?>
<!-- Generator: Adobe Illustrator 18.0.0, SVG Export Plug-In . SVG Version: 6.00 Build 0)  -->
<!DOCTYPE svg PUBLIC "-//W3C//DTD SVG 1.1//EN" "http://www.w3.org/Graphics/SVG/1.1/DTD/svg11.dtd">
<svg version="1.1" id="图层_1" xmlns="http://www.w3.org/2000/svg" xmlns:xlink="http://www.w3.org/1999/xlink" x="0px" y="0px"
	 viewBox="0 0 64 64" enable-background="new 0 0 64 64" xml:space="preserve">
<g>
	
		<circle fill="none" stroke="#FFFFFF" stroke-width="2" stroke-linecap="round" stroke-linejoin="round" stroke-miterlimit="10" cx="27.5" cy="37.1" r="3"/>
	
		<line fill="none" stroke="#FFFFFF" stroke-width="2" stroke-linecap="round" stroke-linejoin="round" stroke-miterlimit="10" x1="54" y1="6.4" x2="53.3" y2="5.7"/>
	
		<line fill="none" stroke="#FFFFFF" stroke-width="2" stroke-linecap="round" stroke-linejoin="round" stroke-miterlimit="10" x1="51.2" y1="9.2" x2="50.5" y2="8.5"/>
	
		<line fill="none" stroke="#FFFFFF" stroke-width="2" stroke-linecap="round" stroke-linejoin="round" stroke-miterlimit="10" x1="59" y1="11.2" x2="58.3" y2="10.5"/>
	
		<line fill="none" stroke="#FFFFFF" stroke-width="2" stroke-linecap="round" stroke-linejoin="round" stroke-miterlimit="10" x1="56.1" y1="14.2" x2="55.4" y2="13.4"/>
	
		<line fill="none" stroke="#FFFFFF" stroke-width="2" stroke-linecap="round" stroke-linejoin="round" stroke-miterlimit="10" x1="22.5" y1="44.9" x2="19.7" y2="42.1"/>
	<path fill="none" stroke="#FFFFFF" stroke-width="2" stroke-linecap="round" stroke-linejoin="round" stroke-miterlimit="10" d="
		M41,26.5L30.4,37c0-0.7-0.3-1.4-0.9-2c-0.5-0.5-1.2-0.8-2-0.9l10.5-10.5l-0.1-0.1c-4.4-3.3-10.1-3.4-13.4-0.1
		c-0.8,0.8-1.4,1.7-1.8,2.7c-1,2.4-3.4,3.9-6,3.9c-3.1,0-5.9,1.1-8,3.2c-5,5-4,14.1,2.3,20.3s15.4,7.3,20.3,2.3c2.1-2.1,3.1-5,3.2-8
		c0-2.6,1.5-5.1,3.9-6c1-0.4,2-1,2.7-1.8C44.5,36.7,44.4,31,41,26.5L41,26.5z"/>
	<path fill="none" stroke="#FFFFFF" stroke-width="2" stroke-linecap="round" stroke-linejoin="round" stroke-miterlimit="10" d="
		M55.4,5l-5.6,5.6l0.7,0.7L27.6,34.2c0.7,0,1.4,0.3,2,0.9c0.5,0.5,0.8,1.2,0.9,2l22.8-22.8l0.7,0.7l5.6-5.6L55.4,5z"/>
</g>
</svg>
