<?xml version="1.0" encoding="utf-8"?>
<!-- Generator: Adobe Illustrator 18.0.0, SVG Export Plug-In . SVG Version: 6.00 Build 0)  -->
<!DOCTYPE svg PUBLIC "-//W3C//DTD SVG 1.1//EN" "http://www.w3.org/Graphics/SVG/1.1/DTD/svg11.dtd">
<svg version="1.1" id="图层_1" xmlns="http://www.w3.org/2000/svg" xmlns:xlink="http://www.w3.org/1999/xlink" x="0px" y="0px"
	 viewBox="0 0 64 64" enable-background="new 0 0 64 64" xml:space="preserve">
<g>
	<path fill="none" stroke="#FFFFFF" stroke-width="2" stroke-linejoin="round" stroke-miterlimit="10" d="M25.5,15h-13
		c-1.1,0-2,0.9-2,2v42c0,1.1,0.9,2,2,2h20c1.1,0,2-0.9,2-2V32"/>
	<path fill="none" stroke="#FFFFFF" stroke-width="2" stroke-linecap="round" stroke-linejoin="round" stroke-miterlimit="10" d="
		M28.5,7v12c0,2.2,1.8,4,4,4h2v6l6-6h12c2.2,0,4-1.8,4-4V7c0-2.2-1.8-4-4-4h-20C30.3,3,28.5,4.8,28.5,7z"/>
	
		<line fill="none" stroke="#FFFFFF" stroke-width="2" stroke-linecap="round" stroke-linejoin="round" stroke-miterlimit="10" x1="34.5" y1="49" x2="10.5" y2="49"/>
	
		<line fill="none" stroke="#FFFFFF" stroke-width="2" stroke-linejoin="round" stroke-miterlimit="10" x1="10.5" y1="23" x2="25.5" y2="23"/>
	
		<line fill="none" stroke="#FFFFFF" stroke-width="2" stroke-linecap="round" stroke-linejoin="round" stroke-miterlimit="10" x1="20.5" y1="19" x2="24.5" y2="19"/>
	
		<line fill="none" stroke="#FFFFFF" stroke-width="2" stroke-linecap="round" stroke-linejoin="round" stroke-miterlimit="10" x1="48.5" y1="13" x2="48.5" y2="13"/>
	
		<line fill="none" stroke="#FFFFFF" stroke-width="2" stroke-linecap="round" stroke-linejoin="round" stroke-miterlimit="10" x1="42.5" y1="13" x2="42.5" y2="13"/>
	
		<line fill="none" stroke="#FFFFFF" stroke-width="2" stroke-linecap="round" stroke-linejoin="round" stroke-miterlimit="10" x1="36.5" y1="13" x2="36.5" y2="13"/>
	
		<circle fill="none" stroke="#FFFFFF" stroke-width="2" stroke-linecap="round" stroke-linejoin="round" stroke-miterlimit="10" cx="22.5" cy="55" r="2"/>
</g>
</svg>
