<?xml version="1.0" encoding="utf-8"?>
<!-- Generator: Adobe Illustrator 18.0.0, SVG Export Plug-In . SVG Version: 6.00 Build 0)  -->
<!DOCTYPE svg PUBLIC "-//W3C//DTD SVG 1.1//EN" "http://www.w3.org/Graphics/SVG/1.1/DTD/svg11.dtd">
<svg version="1.1" id="图层_1" xmlns="http://www.w3.org/2000/svg" xmlns:xlink="http://www.w3.org/1999/xlink" x="0px" y="0px"
	 viewBox="0 0 64 64" enable-background="new 0 0 64 64" xml:space="preserve">
<g>
	
		<path fill-rule="evenodd" clip-rule="evenodd" fill="none" stroke="#FFFFFF" stroke-width="2" stroke-linecap="round" stroke-linejoin="round" stroke-miterlimit="10" d="
		M4.1,30.6l0.3-0.1c0.6-0.2,1.2-0.1,1.7,0.2l5,3.2c1,0.6,2.2,0.8,3.4,0.5l13.6-3.8l-8-13.8c-0.3-0.6,0-1.3,0.6-1.5l0.9-0.3
		c1.5-0.5,3.2-0.2,4.4,0.8l15.2,11.3c0,0,4.6-1.2,10.2-2.7c6-1.5,9-0.3,9.6,1.6c0.5,1.9-1,4.6-7.4,6.4c-9.7,2.7-36.4,9.8-36.4,9.8
		c-3.2,0.9-6.6-0.3-8.6-3l-5-7C3.2,31.6,3.4,30.8,4.1,30.6z"/>
	
		<path fill-rule="evenodd" clip-rule="evenodd" fill="none" stroke="#FFFFFF" stroke-width="2" stroke-linecap="round" stroke-linejoin="round" stroke-miterlimit="10" d="
		M27.7,43.3l-2.9,8.2c-0.3,0.7,0.4,1.5,1.2,1.3l0.7-0.2c1.3-0.3,2.5-1,3.4-2.1l8-10.1"/>
	
		<line fill="none" stroke="#FFFFFF" stroke-width="2" stroke-linecap="round" stroke-linejoin="round" stroke-miterlimit="10" x1="20.4" y1="35.6" x2="20.5" y2="36.2"/>
	
		<line fill="none" stroke="#FFFFFF" stroke-width="2" stroke-linecap="round" stroke-linejoin="round" stroke-miterlimit="10" x1="48.5" y1="28" x2="48.7" y2="28.6"/>
	
		<line fill="none" stroke="#FFFFFF" stroke-width="2" stroke-linecap="round" stroke-linejoin="round" stroke-miterlimit="10" x1="43.8" y1="29.3" x2="44" y2="29.9"/>
	
		<line fill="none" stroke="#FFFFFF" stroke-width="2" stroke-linecap="round" stroke-linejoin="round" stroke-miterlimit="10" x1="39.1" y1="30.5" x2="39.3" y2="31.2"/>
	
		<line fill="none" stroke="#FFFFFF" stroke-width="2" stroke-linecap="round" stroke-linejoin="round" stroke-miterlimit="10" x1="34.4" y1="31.8" x2="34.6" y2="32.4"/>
	
		<line fill="none" stroke="#FFFFFF" stroke-width="2" stroke-linecap="round" stroke-linejoin="round" stroke-miterlimit="10" x1="25" y1="34.3" x2="25.2" y2="34.9"/>
	
		<line fill="none" stroke="#FFFFFF" stroke-width="2" stroke-linecap="round" stroke-linejoin="round" stroke-miterlimit="10" x1="29.7" y1="33.1" x2="29.9" y2="33.7"/>
</g>
</svg>
