<?xml version="1.0" encoding="utf-8"?>
<!-- Generator: Adobe Illustrator 18.0.0, SVG Export Plug-In . SVG Version: 6.00 Build 0)  -->
<!DOCTYPE svg PUBLIC "-//W3C//DTD SVG 1.1//EN" "http://www.w3.org/Graphics/SVG/1.1/DTD/svg11.dtd">
<svg version="1.1" id="图层_1" xmlns="http://www.w3.org/2000/svg" xmlns:xlink="http://www.w3.org/1999/xlink" x="0px" y="0px"
	 viewBox="0 0 64 64" enable-background="new 0 0 64 64" xml:space="preserve">
<g>
	
		<circle fill="none" stroke="#FFFFFF" stroke-width="2" stroke-linecap="round" stroke-linejoin="round" stroke-miterlimit="10" cx="33.2" cy="31.6" r="17"/>
	<path fill="none" stroke="#FFFFFF" stroke-width="2" stroke-linecap="round" stroke-linejoin="round" stroke-miterlimit="10" d="
		M20.2,31.6c0-7.2,5.8-13,13-13"/>
	<path fill="none" stroke="#FFFFFF" stroke-width="2" stroke-linecap="round" stroke-linejoin="round" stroke-miterlimit="10" d="
		M46.7,8.2c0.2,6.4,3.5,9.7,9.9,9.9c-3,5.6-1.8,10.1,3.6,13.5c-5.4,3.4-6.6,7.9-3.6,13.5c-6.4,0.2-9.7,3.5-9.9,9.9
		c-5.6-3-10.1-1.8-13.5,3.6c-3.4-5.4-7.9-6.6-13.5-3.6c-0.2-6.4-3.5-9.7-9.9-9.9c3-5.6,1.8-10.1-3.6-13.5c5.4-3.4,6.6-7.9,3.6-13.5
		c6.4-0.2,9.7-3.5,9.9-9.9c5.6,3,10.1,1.8,13.5-3.6C36.6,10,41.1,11.2,46.7,8.2z"/>
</g>
</svg>
