<?xml version="1.0" encoding="utf-8"?>
<!-- Generator: Adobe Illustrator 18.0.0, SVG Export Plug-In . SVG Version: 6.00 Build 0)  -->
<!DOCTYPE svg PUBLIC "-//W3C//DTD SVG 1.1//EN" "http://www.w3.org/Graphics/SVG/1.1/DTD/svg11.dtd">
<svg version="1.1" id="图层_1" xmlns="http://www.w3.org/2000/svg" xmlns:xlink="http://www.w3.org/1999/xlink" x="0px" y="0px"
	 viewBox="0 0 64 64" enable-background="new 0 0 64 64" xml:space="preserve">
<g>
	<path fill="none" stroke="#FFFFFF" stroke-width="2" stroke-linecap="round" stroke-linejoin="round" stroke-miterlimit="10" d="
		M17.5,17.2c-5.1,6.4-6.4,12.9-1.9,20.4c1.5,2.5,0.9,5.8-1.5,7.6l-9.6,7.4c-1.4,1-1.5,3.1-0.3,4.3L8.5,61c1.2,1.2,3.2,1.1,4.3-0.3
		l7.4-9.6c1.8-2.3,5.1-3,7.6-1.5c10.1,6.1,18.5,1.7,26.9-8.3c8.5-10.1,9.2-23,0.7-31.4C48.5,3,38.7,2.1,29.8,6.7"/>
	
		<line fill="none" stroke="#FFFFFF" stroke-width="2" stroke-linecap="round" stroke-linejoin="round" stroke-miterlimit="10" x1="13.4" y1="26.4" x2="39.1" y2="52.1"/>
	
		<circle fill="none" stroke="#FFFFFF" stroke-width="2" stroke-linecap="round" stroke-linejoin="round" stroke-miterlimit="10" cx="23.5" cy="11.9" r="8"/>
	<path fill="none" stroke="#FFFFFF" stroke-width="2" stroke-linecap="round" stroke-linejoin="round" stroke-miterlimit="10" d="
		M19.4,12.2C19.4,11,19.8,9.9,20.6,9c0.7-0.7,1.7-1.1,2.6-1.2"/>
</g>
</svg>
